<?xml version="1.0" encoding="UTF-8" standalone="no"?>
<svg xmlns:svg="http://www.w3.org/2000/svg" xmlns="http://www.w3.org/2000/svg" xmlns:xlink="http://www.w3.org/1999/xlink" version="1.0" width="1085" height="1085" id="boot">
  <defs id="defs">
    <radialGradient cx="89.437302" cy="838.79797" r="532.45599" id="radialGradient01" gradientUnits="userSpaceOnUse" gradientTransform="matrix(-2.48893, 0.0732931, -0.0625396, -2.12376, 1128.99, 1970.52)">
      <stop style="stop-color:#2f1b0c" offset="0"/>
      <stop style="stop-color:#ae663b" offset="0.5"/>
      <stop style="stop-color:#2f1b0c" offset="1"/>
    </radialGradient>
  </defs>
  <path d="m 21.0338,778.158 c -12.8883,66.594 -5.7911,128.015 -1.4688,150.906 9.63804,51.0452 229.373,34.946 309.969,26.0625 14.8031,-10.8138 9.21178,-33.4363 10.125,-49.8125 104.901,-0.87156 133.504,-18.3732 251.312,49.6563 167.89,34.0009 374.824,6.38582 489.336,-94.268 8.1009,-7.23624 4.8038,-75.7503 -0.8243,-91.8843 -351.719,5.38778 -706.73,3.96811 -1058.45,9.33976 z"/>
  <path d="m 58.2927,178.418 c -34.2254,57.936 14.6903,280.217 -27.1429,410 -29.1576,90.458 -11.5058,218.623 -2.8571,235.714 55.9694,60.186 334.867,-17.0979 560,40 272.629,69.1439 465.553,-71.2609 481.429,-92.8571 2.9428,-110.494 -19.598,-185.153 -197.143,-174.286 -102.05,6.24622 -306.213,-143.996 -330,-175.714 -78.4216,-104.57 -18.1588,-248.795 -112.857,-290 -84.4246,-0.33543 -317.843,-4.2442 -371.429,47.1428 z" style="fill:url(#radialGradient01);stroke:#000;stroke-width:30;stroke-linejoin:round"/>
  <path d="m 422.578,791.275 c 10.0343,-51.4057 27.032,-101.982 24.1376,-155.387 -4.16502,-76.8505 6.11587,-154.986 -7.99455,-231.153 -6.30572,-34.0381 -24.281,-65.2889 -30.2903,-98.9651 -7.16367,-40.1453 51.5594,-61.8943 82.8952,-40.1177 28.5097,19.8126 33.0438,56.771 23.7422,87.7133 -10.4799,34.8622 -27.1483,71.6016 -17.3197,108.684 8.87612,33.4891 46.1188,23.7712 70.5438,14.9401 22.2545,-8.04631 62.8927,-5.00721 61.5413,30.0915 -1.21977,31.6807 -7.74541,68.182 14.7983,95.6206 16.3563,19.9076 42.0246,47.2451 62.9765,14.845 15.6074,-24.1355 43.3792,-46.7213 72.6731,-47.9972 30.9354,-1.3475 40.7414,37.0507 52.612,59.8828 9.87786,18.9991 43.4385,55.1378 55.5494,20.0832 8.50391,-24.6142 0.60472,-64.7875 -32.4594,-51.084 -27.8378,11.5374 -31.5489,59.412 -68.6343,51.1468 -34.4054,-7.66794 -33.9384,-50.2951 -44.2112,-77.3755 -11.124,-29.3243 -50.1195,-35.7321 -78.5026,-33.8895 -33.5476,2.17792 -63.2112,32.8278 -95.6076,26.9085 -34.5108,-6.30567 -21.8006,-58.5725 -3.68142,-79.1201 18.8934,-21.4255 34.4013,-68.352 -0.21744,-79.5311 -30.4328,-9.82733 -71.3471,-18.8235 -93.3219,-41.4872 -26.6266,-27.4613 -14.1046,-56.5014 -8.15325,-80.0621 7.21342,-28.5574 47.5295,-46.0916 72.1791,-32.0522 34.8911,19.8726 64.7158,50.4286 81.8837,88.0542 10.0559,22.0388 13.4499,54.3586 36.078,63.1619 3.35528,1.30533 6.68443,2.27433 10.2118,2.80449" style="fill:none;stroke:#000;stroke-width:30;stroke-linecap:round;stroke-linejoin:round"/>
</svg>