<?xml version="1.0" encoding="UTF-8" standalone="no"?>
<!-- Created with Inkscape (http://www.inkscape.org/) -->
<svg xmlns:dc="http://purl.org/dc/elements/1.1/" xmlns:cc="http://web.resource.org/cc/" xmlns:rdf="http://www.w3.org/1999/02/22-rdf-syntax-ns#" xmlns:svg="http://www.w3.org/2000/svg" xmlns="http://www.w3.org/2000/svg" xmlns:xlink="http://www.w3.org/1999/xlink" xmlns:sodipodi="http://sodipodi.sourceforge.net/DTD/sodipodi-0.dtd" xmlns:inkscape="http://www.inkscape.org/namespaces/inkscape" width="250.38416" height="261.51031" id="svg2647" sodipodi:version="0.32" inkscape:version="0.45.1" sodipodi:docbase="/Users/johnolsen/Desktop" sodipodi:docname="biswajyotim_net.svg" inkscape:output_extension="org.inkscape.output.svg.inkscape" version="1.0">
  <defs id="defs2649">
    <linearGradient inkscape:collect="always" xlink:href="#linearGradient3274" id="linearGradient3292" gradientUnits="userSpaceOnUse" x1="216.59668" y1="281.35754" x2="234.6973" y2="281.35754"/>
    <linearGradient inkscape:collect="always" id="linearGradient3274">
      <stop style="stop-color:#a02c2c;stop-opacity:1;" offset="0" id="stop3276"/>
      <stop style="stop-color:#a02c2c;stop-opacity:0;" offset="1" id="stop3278"/>
    </linearGradient>
    <linearGradient inkscape:collect="always" xlink:href="#linearGradient3274" id="linearGradient3294" gradientUnits="userSpaceOnUse" x1="216.59668" y1="281.35754" x2="234.6973" y2="281.35754"/>
  </defs>
  <sodipodi:namedview id="base" pagecolor="#ffffff" bordercolor="#666666" borderopacity="1.0" gridtolerance="10000" guidetolerance="10" objecttolerance="10" inkscape:pageopacity="0.0" inkscape:pageshadow="2" inkscape:zoom="0.35" inkscape:cx="375" inkscape:cy="520" inkscape:document-units="px" inkscape:current-layer="layer1" inkscape:window-width="907" inkscape:window-height="624" inkscape:window-x="0" inkscape:window-y="22"/>
  <metadata id="metadata2652">
    <rdf:RDF>
      <cc:Work rdf:about="">
        <dc:format>image/svg+xml</dc:format>
        <dc:type rdf:resource="http://purl.org/dc/dcmitype/StillImage"/>
      </cc:Work>
    </rdf:RDF>
  </metadata>
  <g inkscape:label="Layer 1" inkscape:groupmode="layer" id="layer1" transform="translate(-239.093, -115.893)">
    <g id="g3631" transform="matrix(0.718488, 0, 0, 0.668791, 83.4124, 74.9187)" inkscape:export-filename="/home/biswa/Desktop/Image for Rahul Book/created by Biswa/Biswa-Net.png" inkscape:export-xdpi="300" inkscape:export-ydpi="300">
      <g transform="matrix(1, 0, 0, 0.754964, 0, 36.1177)" id="g3282">
        <path style="fill:#e9afaf;fill-rule:evenodd;stroke:#000000;stroke-width:1px;stroke-linecap:butt;stroke-linejoin:miter;stroke-opacity:1" d="M 220.17684,81.856518 L 237.14286,80.933611 L 240,478.07647 C 240,478.07647 214.46256,489.46083 217.31971,472.31798 C 220.17685,455.17512 221.14396,85.769201 220.17684,81.856518 z " id="path2385" sodipodi:nodetypes="cccsc"/>
        <path sodipodi:nodetypes="cccsc" id="path2387" d="M 220.17684,81.856518 L 237.14286,80.933611 L 240,478.07647 C 240,478.07647 214.46256,489.46083 217.31971,472.31798 C 220.17685,455.17512 221.14396,85.769201 220.17684,81.856518 z " style="fill:url(#linearGradient3294);fill-opacity:1;fill-rule:evenodd;stroke:#000000;stroke-width:1px;stroke-linecap:butt;stroke-linejoin:miter;stroke-opacity:1"/>
      </g>
      <path sodipodi:nodetypes="csssssssssss" id="path3296" d="M 229.77551,125.05387 C 301.33634,134.0327 361.52858,144.29427 475.96356,122.31844 C 501.39934,117.43382 511.57394,119.53314 529.3043,101.80278 C 551.21386,79.893218 554.31622,99.444116 551.18769,118.21531 C 546.19464,148.17359 546.63641,179.33744 548.45226,209.85198 C 551.43444,259.96607 557.32257,261.92927 507.42092,265.92814 C 471.11408,268.83759 401.55405,275.02192 359.70809,264.56043 C 336.92324,258.86422 329.1596,256.96155 300.89651,252.25103 C 282.18632,249.13267 240.77121,231.73536 231.14322,231.73536 C 221.30161,231.73536 229.77551,212.85503 229.77551,203.01342 C 229.77551,181.57465 233.39508,167.28694 229.77551,145.56955 C 227.69051,133.05949 227.24414,126.31955 235.24636,122.31845" style="fill:none;fill-rule:evenodd;stroke:#000000;stroke-width:3;stroke-linecap:butt;stroke-linejoin:miter;stroke-miterlimit:4;stroke-dasharray:none;stroke-opacity:1"/>
      <path style="fill:none;fill-rule:evenodd;stroke:#000000;stroke-width:0.95306784px;stroke-linecap:butt;stroke-linejoin:miter;stroke-opacity:1" d="M 229.75253,130.21356 C 301.32367,138.3682 361.52458,147.68784 475.97604,127.72923 C 501.41549,123.29298 511.59155,125.1996 529.32447,109.09675 C 551.23718,89.198322 554.33999,106.95459 551.21101,124.00273 C 546.21724,151.21107 546.65907,179.51431 548.47518,207.22784 C 551.45779,252.74183 557.34677,254.52483 507.43793,258.15663 C 471.12586,260.79902 401.55581,266.41567 359.70383,256.91447 C 336.9157,251.74113 329.15094,250.01311 300.88378,245.73498 C 282.17089,242.90286 240.74982,227.10249 231.12044,227.10249 C 221.27741,227.10249 229.75253,209.95524 229.75253,201.01701 C 229.75253,181.54616 233.37262,168.56995 229.75253,148.84606 C 227.66723,137.48433 227.2208,131.36306 235.22417,127.72924" id="path3298" sodipodi:nodetypes="csssssssssss"/>
      <path sodipodi:nodetypes="csssssssssss" id="path3300" d="M 229.72,137.09194 C 301.30573,144.14785 361.51892,152.2118 475.99371,134.94233 C 501.43835,131.10381 511.61648,132.75354 529.35302,118.82032 C 551.27019,101.60293 554.37364,116.96679 551.24402,131.71793 C 546.24923,155.26032 546.69115,179.75009 548.50763,203.72961 C 551.49085,243.11122 557.38103,244.65399 507.46201,247.79645 C 471.14254,250.08282 401.55831,254.9427 359.6978,246.72166 C 336.90502,242.24535 329.13868,240.75016 300.86575,237.04845 C 282.14905,234.59792 240.71953,220.92643 231.08819,220.92643 C 221.24315,220.92643 229.72,206.08953 229.72,198.3556 C 229.72,181.50818 233.34083,170.28033 229.72,153.21396 C 227.63428,143.38307 227.18776,138.08656 235.19276,134.94234" style="fill:none;fill-rule:evenodd;stroke:#000000;stroke-width:0.88662988px;stroke-linecap:butt;stroke-linejoin:miter;stroke-opacity:1"/>
      <path style="fill:none;fill-rule:evenodd;stroke:#000000;stroke-width:0.81478721px;stroke-linecap:butt;stroke-linejoin:miter;stroke-opacity:1" d="M 229.68483,143.96861 C 301.28633,149.92607 361.5128,156.73464 476.01282,142.15365 C 501.46307,138.9127 511.64344,140.3056 529.38389,128.54148 C 551.30589,114.00447 554.41002,126.97651 551.27971,139.43122 C 546.28382,159.30857 546.72584,179.98582 548.54272,200.23225 C 551.5266,233.483 557.41808,234.78559 507.48805,237.43884 C 471.16058,239.36927 401.56101,243.47257 359.69128,236.53137 C 336.89347,232.75193 329.12542,231.4895 300.84626,228.36407 C 282.12543,226.29503 240.68678,214.7519 231.05332,214.7519 C 221.20611,214.7519 229.68483,202.22478 229.68483,195.69485 C 229.68483,181.47021 233.30645,171.99029 229.68483,157.58078 C 227.59865,149.28035 227.15203,144.80839 235.15879,142.15366" id="path3302" sodipodi:nodetypes="csssssssssss"/>
      <path sodipodi:nodetypes="csssssssssss" id="path3304" d="M 229.64624,150.84308 C 301.26505,155.70244 361.50608,161.25603 476.03379,149.36266 C 501.49019,146.71909 511.67302,147.85525 529.41776,138.25953 C 551.34506,126.40204 554.44994,136.98302 551.31887,147.14204 C 546.32178,163.35552 546.7639,180.22147 548.58122,196.73601 C 551.56582,223.85786 557.45873,224.92035 507.51663,227.08454 C 471.18037,228.65915 401.56397,232.00612 359.68412,226.34434 C 336.8808,223.26154 329.11087,222.23181 300.82487,219.68247 C 282.09952,217.9948 240.65085,208.57934 231.01506,208.57934 C 221.16547,208.57934 229.64624,198.36127 229.64624,193.03496 C 229.64624,181.43225 233.26873,173.6997 229.64624,161.94621 C 227.55955,155.17574 227.11283,151.52807 235.12152,149.36267" style="fill:none;fill-rule:evenodd;stroke:#000000;stroke-width:0.73596245px;stroke-linecap:butt;stroke-linejoin:miter;stroke-opacity:1"/>
      <path style="fill:none;fill-rule:evenodd;stroke:#000000;stroke-width:0.64761853px;stroke-linecap:butt;stroke-linejoin:miter;stroke-opacity:1" d="M 229.60299,157.71455 C 301.2412,161.47629 361.49855,165.77545 476.05729,156.56852 C 501.52058,154.52208 511.70617,155.4016 529.45572,147.97334 C 551.38896,138.79419 554.49468,146.98517 551.36276,154.84949 C 546.36432,167.40071 546.80656,180.45702 548.62437,193.24129 C 551.60978,214.23692 557.50429,215.05942 507.54866,216.73477 C 471.20255,217.95371 401.56729,220.54467 359.6761,216.16176 C 336.8666,213.7753 329.09456,212.97816 300.8009,211.00466 C 282.07048,209.6982 240.61058,202.40948 230.97218,202.40948 C 221.11992,202.40948 229.60299,194.49944 229.60299,190.37623 C 229.60299,181.39431 233.22646,175.40837 229.60299,166.30973 C 227.51573,161.06856 227.06889,158.24481 235.07975,156.56853" id="path3306" sodipodi:nodetypes="csssssssssss"/>
      <path sodipodi:nodetypes="csssssssssss" id="path3308" d="M 229.55283,164.58157 C 301.21354,167.2464 361.48982,170.29194 476.08454,163.76972 C 501.55583,162.32001 511.74462,162.94307 529.49974,157.68086 C 551.43987,151.17832 554.54657,156.98084 551.41366,162.55195 C 546.41365,171.44328 546.85603,180.69241 548.67441,189.74883 C 551.66076,204.62221 557.55712,205.20487 507.5858,206.3917 C 471.22827,207.2552 401.57114,209.09064 359.66679,205.98577 C 336.85013,204.2952 329.07565,203.7305 300.7731,202.33247 C 282.0368,201.40697 240.56388,196.24361 230.92245,196.24361 C 221.0671,196.24361 229.55283,190.64011 229.55283,187.71922 C 229.55283,181.35639 233.17744,177.11593 229.55283,170.67042 C 227.46491,166.95756 227.01793,164.95721 235.03131,163.76972" style="fill:none;fill-rule:evenodd;stroke:#000000;stroke-width:0.54516476px;stroke-linecap:butt;stroke-linejoin:miter;stroke-opacity:1"/>
      <path style="fill:none;fill-rule:evenodd;stroke:#000000;stroke-width:0.41841632px;stroke-linecap:butt;stroke-linejoin:miter;stroke-opacity:1" d="M 229.49078,171.44093 C 301.17932,173.01007 361.47902,174.80339 476.11825,170.96288 C 501.59944,170.10924 511.79218,170.47612 529.5542,167.37755 C 551.50285,163.54864 554.61076,166.96536 551.47663,170.24582 C 546.47468,175.48134 546.91723,180.92754 548.73632,186.26027 C 551.72383,195.01822 557.62248,195.36131 507.63175,196.06016 C 471.2601,196.56862 401.57591,197.64939 359.65528,195.82114 C 336.82976,194.82567 329.05226,194.49316 300.73871,193.66995 C 281.99513,193.12498 240.5061,190.08462 230.86093,190.08462 C 221.00175,190.08462 229.49078,186.78509 229.49078,185.06517 C 229.49078,181.31852 233.11679,178.82159 229.49078,175.02625 C 227.40204,172.83999 226.95489,171.66212 234.97138,170.96288" id="path3310" sodipodi:nodetypes="csssssssssss"/>
      <path sodipodi:nodetypes="csssssssssss" id="path3312" d="M 236.59806,178.64114 C 307.17166,179.29974 366.18754,180.05245 483.68385,178.44049 C 509.80007,178.08219 519.72923,178.23618 539.76334,176.93562 C 564.51963,175.32852 565.13218,176.76261 559.5995,178.13952 C 550.76955,180.33701 547.23254,182.62292 545.15561,184.86121 C 541.74467,188.53717 547.39521,188.68117 496.87172,188.9745 C 460.11243,189.18791 389.60769,189.64155 349.00451,188.87417 C 326.89633,188.45635 319.35838,188.31679 291.63387,187.97126 C 273.28024,187.74252 233.99458,186.4664 224.34514,186.4664 C 214.48161,186.4664 225.3855,185.0815 226.64231,184.3596 C 229.38014,182.78703 234.83234,181.739 233.97814,180.14599 C 233.48605,179.22836 233.89942,178.73397 242.43041,178.44049" style="fill:none;fill-rule:evenodd;stroke:#000000;stroke-width:0.27113664px;stroke-linecap:butt;stroke-linejoin:miter;stroke-opacity:1"/>
      <path sodipodi:nodetypes="cssc" id="path3316" d="M 351.06003,135.68604 C 351.51593,139.33327 357.54321,151.12328 357.99911,154.77051 C 360.73466,176.65485 376.82508,210.20269 386.72105,229.99464 C 393.10747,242.76747 404.15796,260.68008 413.31867,269.8408" style="fill:none;fill-rule:evenodd;stroke:#000000;stroke-width:1px;stroke-linecap:butt;stroke-linejoin:miter;stroke-opacity:1"/>
      <path sodipodi:nodetypes="cssc" style="fill:none;fill-rule:evenodd;stroke:#000000;stroke-width:1px;stroke-linecap:butt;stroke-linejoin:miter;stroke-opacity:1" d="M 235.77551,126.25756 C 236.23141,129.90479 236.68732,130.98062 237.14322,134.62785 C 239.87877,156.51219 255.96919,190.06003 265.86516,209.85198 C 272.25158,222.62481 279.44496,239.68029 288.60567,248.84101" id="path3318"/>
      <path sodipodi:nodetypes="cssc" id="path3320" d="M 384.34555,134.68607 C 384.80145,138.3333 389.54303,156.55181 389.99893,160.19904 C 392.73448,182.08338 410.53917,214.34552 420.43514,234.13747 C 426.82156,246.9103 433.15781,260.53724 442.31852,269.69796" style="fill:none;fill-rule:evenodd;stroke:#000000;stroke-width:1px;stroke-linecap:butt;stroke-linejoin:miter;stroke-opacity:1"/>
      <path sodipodi:nodetypes="cssc" style="fill:none;fill-rule:evenodd;stroke:#000000;stroke-width:1px;stroke-linecap:butt;stroke-linejoin:miter;stroke-opacity:1" d="M 253.77551,127.68616 C 254.23141,131.33339 254.68732,134.98062 255.14322,138.62785 C 257.87877,160.51219 273.96919,194.06003 283.86516,213.85198 C 290.25158,226.62481 297.44496,242.82315 306.60567,251.98387" id="path3322"/>
      <path sodipodi:nodetypes="cssc" id="path3324" d="M 391.05715,134.46384 C 387.86582,139.93468 382.96022,159.97681 379.7689,165.44765 C 367.07354,187.21112 357.0476,176.59695 345.85918,213.54506 C 343.28294,222.05268 341.48736,250.15382 339.44919,258.30653" style="fill:none;fill-rule:evenodd;stroke:#000000;stroke-width:1px;stroke-linecap:butt;stroke-linejoin:miter;stroke-opacity:1"/>
      <path sodipodi:nodetypes="cssc" style="fill:none;fill-rule:evenodd;stroke:#000000;stroke-width:1px;stroke-linecap:butt;stroke-linejoin:miter;stroke-opacity:1" d="M 414.33553,131.89243 C 412.63222,137.36327 409.21464,149.6912 407.51133,155.16204 C 400.73543,176.92551 383.08057,191.2668 379.74075,213.97363 C 375.35652,243.78124 382.41896,258.2966 382.59825,266.44931" id="path3326"/>
      <path sodipodi:nodetypes="css" id="path3328" d="M 277.34365,130.17816 C 274.15232,135.649 269.67529,142.83412 266.48397,148.30496 C 253.78861,170.06843 237.76272,189.02539 226.5743,211.40222" style="fill:none;fill-rule:evenodd;stroke:#000000;stroke-width:1px;stroke-linecap:butt;stroke-linejoin:miter;stroke-opacity:1"/>
      <path sodipodi:nodetypes="cssc" style="fill:none;fill-rule:evenodd;stroke:#000000;stroke-width:1px;stroke-linecap:butt;stroke-linejoin:miter;stroke-opacity:1" d="M 438.97453,128.46389 C 438.01522,133.93473 435.77022,142.83412 434.81092,148.30496 C 430.99474,170.06843 417.09742,184.73972 415.03843,207.11655 C 414.30685,215.06723 413.95601,260.43943 415.24402,268.59214" id="path3330"/>
      <path sodipodi:nodetypes="cs" id="path3332" d="M 256.05795,129.89243 C 252.86662,135.36327 233.8183,170.83382 230.62698,176.30466" style="fill:none;fill-rule:evenodd;stroke:#000000;stroke-width:1px;stroke-linecap:butt;stroke-linejoin:miter;stroke-opacity:1"/>
      <path sodipodi:nodetypes="csc" style="fill:none;fill-rule:evenodd;stroke:#000000;stroke-width:1px;stroke-linecap:butt;stroke-linejoin:miter;stroke-opacity:1" d="M 477.37706,121.89249 C 476.13875,127.36333 474.90045,128.54851 473.66215,134.01935 C 468.73607,155.78282 435.68262,188.72581 442.55481,268.44925" id="path3334"/>
      <path sodipodi:nodetypes="cs" id="path3336" d="M 514.56886,112.77092 C 517.30441,134.65526 534.68053,176.77445 544.5765,196.5664" style="fill:none;fill-rule:evenodd;stroke:#000000;stroke-width:1px;stroke-linecap:butt;stroke-linejoin:miter;stroke-opacity:1"/>
      <path sodipodi:nodetypes="cc" style="fill:none;fill-rule:evenodd;stroke:#000000;stroke-width:1px;stroke-linecap:butt;stroke-linejoin:miter;stroke-opacity:1" d="M 230.43668,180.13795 C 236.8231,192.91078 252.58783,232.25175 261.74854,241.41247" id="path3338"/>
      <path sodipodi:nodetypes="cssc" id="path3340" d="M 327.91711,135.25742 C 328.37301,138.90465 331.40032,146.83755 331.85622,150.48478 C 334.59177,172.36912 350.68219,205.91696 360.57816,225.70891 C 366.96458,238.48174 383.15787,258.96575 392.31858,268.12647" style="fill:none;fill-rule:evenodd;stroke:#000000;stroke-width:1px;stroke-linecap:butt;stroke-linejoin:miter;stroke-opacity:1"/>
      <path sodipodi:nodetypes="cssc" style="fill:none;fill-rule:evenodd;stroke:#000000;stroke-width:1px;stroke-linecap:butt;stroke-linejoin:miter;stroke-opacity:1" d="M 463.77439,124.54329 C 464.23029,128.19052 464.6862,131.83775 465.1421,135.48498 C 467.87765,157.36932 483.96807,190.91716 493.86404,210.70911 C 500.25046,223.48194 519.44373,254.25157 528.60444,263.41229" id="path3359"/>
      <path sodipodi:nodetypes="cssc" id="path3361" d="M 306.48981,133.40049 C 306.94571,137.04772 308.68732,144.98062 309.14322,148.62785 C 311.87877,170.51219 327.96919,204.06003 337.86516,223.85198 C 344.25158,236.62481 359.15918,257.10883 368.31989,266.26955" style="fill:none;fill-rule:evenodd;stroke:#000000;stroke-width:1px;stroke-linecap:butt;stroke-linejoin:miter;stroke-opacity:1"/>
      <path sodipodi:nodetypes="cssc" style="fill:none;fill-rule:evenodd;stroke:#000000;stroke-width:1px;stroke-linecap:butt;stroke-linejoin:miter;stroke-opacity:1" d="M 292.91838,132.82908 C 293.37428,136.47631 294.68732,146.98062 295.14322,150.62785 C 297.87877,172.51219 313.96919,206.06003 323.86516,225.85198 C 330.25158,238.62481 336.58783,252.25175 345.74854,261.41247" id="path3363"/>
      <path sodipodi:nodetypes="cssc" id="path3365" d="M 277.20405,131.54326 C 277.65995,135.19049 274.68732,134.98062 275.14322,138.62785 C 277.87877,160.51219 293.96919,194.06003 303.86516,213.85198 C 310.25158,226.62481 317.44496,247.10883 326.60567,256.26955" style="fill:none;fill-rule:evenodd;stroke:#000000;stroke-width:1px;stroke-linecap:butt;stroke-linejoin:miter;stroke-opacity:1"/>
      <path sodipodi:nodetypes="cssc" style="fill:none;fill-rule:evenodd;stroke:#000000;stroke-width:1px;stroke-linecap:butt;stroke-linejoin:miter;stroke-opacity:1" d="M 543.77032,101.46417 C 540.57899,106.93501 523.24494,119.26294 520.05362,124.73378 C 507.35826,146.49725 502.47512,168.88274 491.2867,191.25957 C 487.31136,199.21025 479.20068,257.86804 477.16251,266.02075" id="path3367"/>
      <path sodipodi:nodetypes="cssc" id="path3369" d="M 293.77228,132.74956 C 290.58095,138.2204 291.67529,142.83412 288.48397,148.30496 C 275.78861,170.06843 255.90562,184.73972 244.7172,207.11655 C 240.74186,215.06723 243.34536,225.29692 241.30719,233.44963" style="fill:none;fill-rule:evenodd;stroke:#000000;stroke-width:1px;stroke-linecap:butt;stroke-linejoin:miter;stroke-opacity:1"/>
      <path sodipodi:nodetypes="cssc" style="fill:none;fill-rule:evenodd;stroke:#000000;stroke-width:1px;stroke-linecap:butt;stroke-linejoin:miter;stroke-opacity:1" d="M 370.20079,134.8924 C 367.00946,140.36324 361.67529,142.83412 358.48397,148.30496 C 345.78861,170.06843 321.31584,182.98439 314.7172,207.11655 C 309.02759,227.92425 315.48819,244.58244 313.45002,252.73515" id="path3371"/>
      <path sodipodi:nodetypes="cssc" id="path3373" d="M 320.20085,133.6067 C 317.00952,139.07754 316.81816,143.26269 313.62684,148.73353 C 300.93148,170.497 281.04849,185.16829 269.86007,207.54512 C 265.88473,215.4958 266.77395,232.58257 264.73578,240.73528" style="fill:none;fill-rule:evenodd;stroke:#000000;stroke-width:1px;stroke-linecap:butt;stroke-linejoin:miter;stroke-opacity:1"/>
      <path sodipodi:nodetypes="cssc" style="fill:none;fill-rule:evenodd;stroke:#000000;stroke-width:1px;stroke-linecap:butt;stroke-linejoin:miter;stroke-opacity:1" d="M 341.20082,135.89237 C 338.00949,141.36321 335.67529,140.83412 332.48397,146.30496 C 319.78861,168.06843 299.90562,182.73972 288.7172,205.11655 C 284.74186,213.06723 288.20249,238.72534 286.16432,246.87805" id="path3375"/>
      <path sodipodi:nodetypes="cs" id="path3377" d="M 241.62938,125.74959 C 238.43805,131.22043 232.24675,143.11979 229.05543,148.59063" style="fill:none;fill-rule:evenodd;stroke:#000000;stroke-width:1px;stroke-linecap:butt;stroke-linejoin:miter;stroke-opacity:1"/>
      <path sodipodi:nodetypes="cssc" style="fill:none;fill-rule:evenodd;stroke:#000000;stroke-width:1px;stroke-linecap:butt;stroke-linejoin:miter;stroke-opacity:1" d="M 409.48795,132.68607 C 409.94385,136.3333 424.97104,174.26591 425.42694,177.91314 C 428.16249,199.79748 444.68148,212.77409 454.57745,232.56604 C 460.96387,245.33887 467.30012,258.96581 476.46083,268.12653" id="path3379"/>
      <path sodipodi:nodetypes="cssc" id="path3381" d="M 436.05899,129.11465 C 436.51489,132.76188 447.68498,159.9803 448.14088,163.62753 C 450.87643,185.51187 466.53828,207.91696 476.43425,227.70891 C 482.82067,240.48174 493.01402,256.25152 502.17473,265.41224" style="fill:none;fill-rule:evenodd;stroke:#000000;stroke-width:1px;stroke-linecap:butt;stroke-linejoin:miter;stroke-opacity:1"/>
      <path sodipodi:nodetypes="cssc" style="fill:none;fill-rule:evenodd;stroke:#000000;stroke-width:1px;stroke-linecap:butt;stroke-linejoin:miter;stroke-opacity:1" d="M 489.77551,120.25756 C 490.23141,123.90479 490.68732,124.98062 491.14322,128.62785 C 493.87877,150.51219 509.96919,184.06003 519.86516,203.85198 C 526.25158,216.62481 535.15923,234.53742 544.31994,243.69814" id="path3383"/>
      <g transform="matrix(1.05707, 0, 0, 0.972759, 310.979, -16.8974)" id="g3286">
        <path sodipodi:nodetypes="cccsc" id="path3288" d="M 220.17684,81.856518 L 237.14286,80.933611 L 240,478.07647 C 240,478.07647 214.46256,489.46083 217.31971,472.31798 C 220.17685,455.17512 221.14396,85.769201 220.17684,81.856518 z " style="fill:#e9afaf;fill-rule:evenodd;stroke:#000000;stroke-width:1px;stroke-linecap:butt;stroke-linejoin:miter;stroke-opacity:1"/>
        <path style="fill:url(#linearGradient3292);fill-opacity:1;fill-rule:evenodd;stroke:#000000;stroke-width:1px;stroke-linecap:butt;stroke-linejoin:miter;stroke-opacity:1" d="M 220.28774,80.892405 L 237.14286,80.933611 L 240,478.07647 C 240,478.07647 214.46256,489.46083 217.31971,472.31798 C 220.17685,455.17512 221.25486,84.805088 220.28774,80.892405 z " id="path3290" sodipodi:nodetypes="cccsc"/>
      </g>
    </g>
  </g>
</svg>